<svg width="12" height="12" viewBox="0 0 12 12" fill="none" xmlns="http://www.w3.org/2000/svg">
<path fill-rule="evenodd" clip-rule="evenodd" d="M6.00047 0C4.37098 0 4.16648 0.00712497 3.52649 0.0362498C2.88774 0.0654997 2.45174 0.166624 2.07024 0.314999C1.67562 0.468248 1.34087 0.673247 1.00737 1.00687C0.673622 1.34037 0.468623 1.67512 0.314874 2.06962C0.166124 2.45124 0.0648747 2.88736 0.0361248 3.52586C0.00749997 4.16586 0 4.37048 0 5.99997C0 7.62947 0.00724997 7.83334 0.0362498 8.47334C0.0656247 9.11208 0.166749 9.54808 0.314999 9.92958C0.468373 10.3242 0.673372 10.659 1.007 10.9925C1.34037 11.3262 1.67512 11.5317 2.06949 11.6849C2.45124 11.8333 2.88736 11.9344 3.52598 11.9637C4.16598 11.9928 4.37036 11.9999 5.99972 11.9999C7.62934 11.9999 7.83322 11.9928 8.47321 11.9637C9.11196 11.9344 9.54846 11.8333 9.93021 11.6849C10.3247 11.5317 10.659 11.3262 10.9923 10.9925C11.3261 10.659 11.5311 10.3242 11.6848 9.92971C11.8323 9.54808 11.9336 9.11196 11.9636 8.47346C11.9923 7.83347 11.9998 7.62947 11.9998 5.99997C11.9998 4.37048 11.9923 4.16598 11.9636 3.52598C11.9336 2.88724 11.8323 2.45124 11.6848 2.06974C11.5311 1.67512 11.3261 1.34037 10.9923 1.00687C10.6586 0.673122 10.3248 0.468123 9.92983 0.314999C9.54733 0.166624 9.11109 0.0654997 8.47234 0.0362498C7.83234 0.00712497 7.62859 0 5.9986 0H6.00047ZM5.4622 1.08123C5.62195 1.08098 5.8002 1.08123 6.00045 1.08123C7.60244 1.08123 7.79232 1.08698 8.42494 1.11573C9.00994 1.14248 9.32743 1.24023 9.53893 1.32235C9.81893 1.4311 10.0186 1.5611 10.2284 1.7711C10.4384 1.9811 10.5684 2.1811 10.6774 2.4611C10.7596 2.67235 10.8574 2.98985 10.8841 3.57484C10.9128 4.20734 10.9191 4.39734 10.9191 5.99858C10.9191 7.59983 10.9128 7.78982 10.8841 8.42232C10.8573 9.00732 10.7596 9.32482 10.6774 9.53607C10.5687 9.81607 10.4384 10.0154 10.2284 10.2253C10.0184 10.4353 9.81906 10.5653 9.53893 10.6741C9.32768 10.7566 9.00994 10.8541 8.42494 10.8808C7.79244 10.9096 7.60244 10.9158 6.00045 10.9158C4.39833 10.9158 4.20846 10.9096 3.57596 10.8808C2.99096 10.8538 2.67346 10.7561 2.46184 10.6739C2.18184 10.5652 1.98184 10.4352 1.77184 10.2252C1.56184 10.0152 1.43184 9.81569 1.32284 9.53557C1.24072 9.32432 1.14284 9.00682 1.11622 8.42182C1.08747 7.78933 1.08172 7.59933 1.08172 5.99708C1.08172 4.39484 1.08747 4.20584 1.11622 3.57334C1.14297 2.98835 1.24072 2.67085 1.32284 2.45935C1.43159 2.17935 1.56184 1.97935 1.77184 1.76935C1.98184 1.55935 2.18184 1.42935 2.46184 1.32035C2.67334 1.23785 2.99096 1.14035 3.57596 1.11348C4.12946 1.08848 4.34396 1.08098 5.4622 1.07973V1.08123ZM9.20319 2.07748C8.80569 2.07748 8.48319 2.3996 8.48319 2.79722C8.48319 3.19472 8.80569 3.51722 9.20319 3.51722C9.60069 3.51722 9.92318 3.19472 9.92318 2.79722C9.92318 2.39973 9.60069 2.07748 9.20319 2.07748ZM6.00048 2.91872C4.29887 2.91872 2.91925 4.29834 2.91925 5.99996C2.91925 7.70158 4.29887 9.08057 6.00048 9.08057C7.7021 9.08057 9.08122 7.70158 9.08122 5.99996C9.08122 4.29834 7.7021 2.91872 6.00048 2.91872ZM6.00046 3.99997C7.10496 3.99997 8.00045 4.89534 8.00045 5.99996C8.00045 7.10445 7.10496 7.99995 6.00046 7.99995C4.89584 7.99995 4.00047 7.10445 4.00047 5.99996C4.00047 4.89534 4.89584 3.99997 6.00046 3.99997Z" fill="white"/>
</svg>
