<svg width="87" height="103" viewBox="0 0 87 103" fill="none" xmlns="http://www.w3.org/2000/svg">
<path d="M60.5997 21.6693L55.2755 23.5715L52.9908 16.614C48.7935 3.78431 35.4159 -3.02853 23.1239 1.30315C10.8318 5.63484 4.28773 19.7051 8.48502 32.5347L10.7697 39.4923L5.42493 41.4049C3.38685 42.1954 1.73179 43.7409 0.803775 45.7201C-0.124243 47.6994 -0.25384 49.9602 0.441933 52.0325L15.2565 97.3033C15.564 98.3292 16.0746 99.2828 16.7579 100.107C17.4413 100.932 18.2834 101.611 19.2343 102.104C20.1851 102.597 21.2254 102.893 22.2931 102.976C23.3609 103.059 24.4344 102.926 25.4499 102.586L80.6247 82.8505C82.6897 82.0614 84.3682 80.5022 85.3072 78.5009C86.2461 76.4995 86.3724 74.212 85.6594 72.1195L70.8344 26.8487C70.5189 25.8257 70.0006 24.8768 69.3103 24.0585C68.62 23.2402 67.772 22.5693 66.8168 22.0859C65.8616 21.6025 64.8188 21.3165 63.7506 21.2449C62.6825 21.1734 61.6108 21.3177 60.5997 21.6693ZM18.544 28.906C17.4123 25.5701 17.6155 21.9257 19.1109 18.7362C20.6064 15.5468 23.2782 13.0598 26.5664 11.7964C28.1902 11.2408 29.9092 11.0181 31.6208 11.1413C33.3325 11.2646 35.0018 11.7314 36.5292 12.5139C38.0565 13.2964 39.4106 14.3785 40.5107 15.6958C41.6107 17.013 42.4341 18.5383 42.9318 20.1806L45.2061 27.1382L20.8184 35.8636L18.544 28.906ZM49.5585 69.0801L53.3423 80.6382C53.4118 80.8699 53.3893 81.1195 53.2796 81.3352C53.1699 81.5508 52.9813 81.7158 52.753 81.796L47.4495 83.6879C47.2385 83.7464 47.0129 83.721 46.8202 83.6169C46.6275 83.5129 46.4825 83.3382 46.4157 83.1297L42.6009 71.6233C40.4975 71.5087 38.4792 70.7542 36.8164 69.4609C35.1535 68.1676 33.9255 66.3971 33.2966 64.3866C32.3975 61.7286 32.5615 58.8258 33.7543 56.286C34.9471 53.7462 37.0763 51.7663 39.6959 50.7609C40.9894 50.319 42.3585 50.142 43.7218 50.2404C45.0851 50.3389 46.4147 50.7108 47.6312 51.334C48.8477 51.9572 49.9263 52.819 50.8027 53.8679C51.6791 54.9168 52.3353 56.1314 52.7323 57.4393C53.3975 59.4817 53.4525 61.6737 52.8906 63.7468C52.3287 65.82 51.1743 67.6842 49.5688 69.1111L49.5585 69.0801Z" fill="#4CAF4F"/>
<path d="M55.0377 23.4475C55.0377 23.5922 45.1648 27.3036 32.8831 31.718C20.6013 36.1324 10.5836 39.6784 10.532 39.575C10.4803 39.4716 20.4049 35.7292 32.697 31.3045C44.989 26.8798 54.9861 23.3131 55.0377 23.4475Z" fill="#263238"/>
<path d="M66.7612 25.3497C66.8068 25.4394 66.8448 25.5328 66.8749 25.6288C66.9576 25.8356 67.0507 26.1044 67.1747 26.4352C67.4435 27.1899 67.8157 28.2341 68.2809 29.5367L72.2508 41.0947C73.9049 45.995 75.8794 51.8051 78.0711 58.2561C79.105 61.4919 80.3249 64.8621 81.4621 68.4081C82.0707 70.2355 82.3337 72.1602 82.2374 74.0838C82.1497 75.0842 81.8652 76.0574 81.4 76.9475C80.9032 77.8345 80.2397 78.6173 79.4461 79.2529C77.8489 80.4188 76.0761 81.3226 74.1943 81.9304L68.8702 83.843L58.7905 87.451L41.7222 93.5299L30.1951 97.5824L27.0937 98.6162L26.2666 98.885C26.1782 98.9243 26.0839 98.9488 25.9875 98.9574C25.9875 98.9574 26.0702 98.9574 26.246 98.8333L27.0523 98.5128L30.1538 97.3446L41.6188 93.1267L58.6561 86.9238L68.7151 83.2847L74.0393 81.3618C75.8675 80.7787 77.5889 79.9024 79.136 78.767C79.8744 78.1772 80.4922 77.4506 80.9555 76.627C81.3933 75.8038 81.6572 74.8995 81.7309 73.9701C81.826 72.1166 81.5736 70.2618 80.9865 68.5012C79.87 64.9862 78.6914 61.585 77.6266 58.3491C75.4763 51.8878 73.4913 46.057 71.9199 41.1568C70.3485 36.2565 69.0252 32.3176 68.1155 29.547C67.6813 28.1927 67.3505 27.1382 67.0817 26.3732L66.8336 25.5461C66.8024 25.4835 66.7781 25.4176 66.7612 25.3497Z" fill="#263238"/>
<path d="M37.649 11.0934C37.649 11.0934 37.1011 10.8246 36.0879 10.4111C34.6438 9.85619 33.1165 9.54863 31.5702 9.50131C29.2781 9.42272 26.9972 9.85348 24.8917 10.7626C22.3313 11.8946 20.1421 13.7256 18.5751 16.0454C16.9977 18.3586 16.1513 21.0922 16.1456 23.892C16.1672 26.1868 16.5153 28.4668 17.1795 30.6635C17.717 32.5451 18.2753 34.0441 18.6475 35.0883C18.867 35.6186 19.0467 36.1646 19.1851 36.7217C18.8914 36.2258 18.6456 35.7031 18.451 35.1606C18.0272 34.1268 17.4172 32.6588 16.8176 30.7669C16.0816 28.5472 15.6809 26.23 15.6287 23.892C15.6012 20.9864 16.4673 18.1425 18.1099 15.7456C19.7315 13.341 22.0103 11.4534 24.6746 10.3077C26.8458 9.39362 29.1978 8.99041 31.5495 9.12914C33.1294 9.20965 34.6813 9.5775 36.1293 10.2146C36.5164 10.3932 36.8897 10.6006 37.2458 10.8349C37.3929 10.8995 37.5289 10.9867 37.649 11.0934Z" fill="#263238"/>
<path d="M38.1245 51.5466C38.2895 51.4466 38.4624 51.3602 38.6414 51.2882C39.1589 51.0546 39.6949 50.8644 40.2439 50.7195C41.1152 50.4624 42.014 50.3097 42.9214 50.2647C44.1557 50.1983 45.3905 50.3848 46.5501 50.8126C49.1967 51.743 51.6261 54.4413 52.8254 58.0493C53.4005 59.9855 53.4005 62.0472 52.8254 63.9834C52.1877 66.0849 51.0447 67.9981 49.4965 69.5557L49.5585 69.2765C50.9335 73.05 52.4325 77.1439 53.9833 81.4135L54.0763 81.672L53.8179 81.765L51.4504 82.5507L46.2813 84.2772L46.0229 84.3599L45.9402 84.1015C44.5238 79.8215 42.9731 75.8309 41.8049 71.9128L42.0323 72.0885C40.0113 71.9207 38.0842 71.1621 36.4911 69.9072C35.0497 68.797 33.8678 67.3858 33.0278 65.7719C32.2699 64.3407 31.8925 62.7387 31.932 61.1197C31.9798 59.4651 32.393 57.8414 33.1418 56.3651C33.8907 54.8889 34.9568 53.5964 36.2637 52.5804C36.8016 52.1437 37.4053 51.7948 38.0522 51.5466C37.4682 51.8931 36.9023 52.2692 36.3567 52.6735C34.9211 53.888 33.8212 55.4507 33.1622 57.2119C32.5966 58.54 32.332 59.9768 32.3874 61.4193C32.4429 62.8617 32.8169 64.274 33.4827 65.5548C34.3086 67.1074 35.4621 68.4619 36.8633 69.5247C38.3831 70.7174 40.2204 71.4365 42.1461 71.5923H42.3218L42.3735 71.7474C43.5107 75.5932 45.0718 79.6147 46.5088 83.9154L46.1676 83.75L51.3367 82.0235L53.6938 81.2275L53.5284 81.579C51.988 77.3093 50.4993 73.205 49.1347 69.4316V69.2765L49.2587 69.1525C50.7617 67.6595 51.8823 65.8261 52.5256 63.8077C53.0739 61.9555 53.0739 59.9842 52.5256 58.132C51.3987 54.6584 49.0726 52.0222 46.5501 51.0917C45.4336 50.6612 44.2415 50.4607 43.0455 50.5024C42.1525 50.5229 41.2646 50.6443 40.3989 50.8643C38.8585 51.2468 38.1348 51.5983 38.1245 51.5466Z" fill="#263238"/>
</svg>
