<svg width="86" height="148" viewBox="0 0 86 148" fill="none" xmlns="http://www.w3.org/2000/svg">
<path d="M19.0504 110.272C3.05861 99.1035 -0.564114 78.3712 0.0672753 59.7297C0.170782 56.6245 -0.170777 53.333 1.30937 50.6108C2.78951 47.8885 6.24662 46.0151 9.03094 47.3193C11.3391 48.4061 12.3432 51.0972 13.637 53.3226C15.3633 56.2867 17.8932 58.7017 20.9342 60.2886C22.9112 61.3237 25.3643 61.9447 27.3205 60.8683C30.0117 59.3881 30.3222 55.6929 30.3015 52.5877C30.3015 46.8121 30.267 41.0433 30.198 35.2815C30.012 32.1875 30.3266 29.0838 31.1296 26.0901C32.0922 23.1505 34.2348 20.4283 37.164 19.6002C40.0932 18.7722 43.747 20.48 44.4094 23.5024C44.5235 24.7825 44.5546 26.0687 44.5026 27.3529C44.5854 28.6467 45.1858 30.0647 46.3968 30.458C47.6078 30.8514 48.8706 29.9509 49.8022 29.04C52.9902 25.9348 55.1638 21.8877 57.1821 17.8924C59.2005 13.897 61.1775 9.78779 64.0757 6.38243C66.9739 2.97707 70.9796 0.275553 75.4614 0.0167872C79.9432 -0.241979 84.6114 2.51129 85.7292 6.85857C86.8471 11.2058 84.3112 15.6463 81.589 19.1758C77.4812 24.415 72.6389 29.0341 67.2119 32.8904C66.1526 33.4689 65.3071 34.3724 64.8002 35.4678C64.1274 37.5379 66.0837 39.608 68.1228 40.2601C70.431 41.0261 72.9358 40.788 75.3682 41.0778C77.8006 41.3676 80.3883 42.4234 81.3095 44.7005C82.5723 47.8678 79.9225 51.18 77.3245 53.3537C72.1078 57.701 66.1842 61.1214 59.8112 63.4663C57.5341 64.2943 55.1431 65.0292 53.3006 66.6232C51.4582 68.2172 50.3611 71.0015 51.4686 73.1855C52.5761 75.3695 55.4225 76.063 57.8135 75.6179C60.2045 75.1729 62.3264 73.8894 64.6036 73.0303C68.8577 71.4259 74.3435 71.7157 77.0243 75.3902C77.8549 76.656 78.3806 78.0971 78.5602 79.6003C78.7398 81.1035 78.5684 82.6279 78.0594 84.0537C77.0235 86.8912 75.4291 89.4922 73.3706 91.7028C66.5913 99.8025 57.783 105.957 47.8459 109.537C37.9817 112.953 28.8421 113.884 19.04 110.293" fill="#4CAF4F"/>
<path d="M81.175 2.5734C81.175 2.5734 81.0818 2.67691 80.8748 2.86322L79.9536 3.68092C79.1462 4.40546 77.9559 5.46123 76.4551 6.85857C72.1998 10.8096 68.2484 15.0758 64.6346 19.6209C62.3264 22.4881 59.9354 25.7381 57.3892 29.2677C54.8429 32.7973 52.2139 36.6063 49.6055 40.6534C46.8246 44.9212 44.278 49.3371 41.977 53.8816C40.7764 56.2519 39.7206 58.7257 38.6338 61.2512L35.4251 68.9624C31.1956 78.6755 27.5119 88.6173 24.3913 98.7413C21.8777 107.025 20.145 115.525 19.216 124.131C18.614 129.939 18.517 135.789 18.9262 141.614C19.0918 143.684 19.247 145.267 19.392 146.344C19.4541 146.861 19.4954 147.275 19.5368 147.576V148C19.4923 147.865 19.4611 147.727 19.4437 147.586C19.3919 147.286 19.3298 146.882 19.247 146.365C19.0607 145.33 18.8641 143.694 18.6778 141.624C18.1784 135.788 18.213 129.919 18.7813 124.09C19.6526 115.447 21.3475 106.907 23.8427 98.586C26.9371 88.4336 30.6107 78.4668 34.8455 68.7347L38.137 61.0546C39.2238 58.5394 40.2899 56.0448 41.5009 53.6642C43.8179 49.106 46.3853 44.6795 49.1914 40.405C51.8412 36.2647 54.5117 32.5178 57.0269 29.0193C59.5421 25.5208 61.9745 22.25 64.2723 19.3932C67.9229 14.8601 71.9274 10.6237 76.2481 6.72401C77.7799 5.34737 79.0013 4.31231 79.8294 3.61881L80.792 2.84252C80.91 2.73978 81.0383 2.64959 81.175 2.5734Z" fill="#263238"/>
<path d="M41.6355 53.6435C41.4895 53.2171 41.3888 52.7765 41.3353 52.329C41.1697 51.4699 40.9834 50.2588 40.766 48.6855C40.321 45.5803 39.8655 41.3262 39.379 36.6167C38.8926 31.9071 38.344 27.6427 37.8886 24.5685C37.6505 23.0366 37.4435 21.8049 37.2986 20.9458C37.1855 20.5061 37.1264 20.0542 37.1226 19.6002C37.3008 20.0149 37.4294 20.4492 37.5056 20.894C37.7333 21.7428 37.9921 22.9642 38.2819 24.5064C38.8719 27.6116 39.4515 31.8347 39.938 36.5546C40.4244 41.2745 40.8385 45.4147 41.1594 48.6338C41.3146 50.0829 41.4492 51.3146 41.5527 52.2979C41.6331 52.7416 41.6609 53.1933 41.6355 53.6435Z" fill="#263238"/>
<path d="M81.4648 46.2118C80.9611 46.3214 80.4482 46.3838 79.9329 46.3981C78.8978 46.4912 77.428 46.6154 75.6063 46.8224C71.9629 47.2158 66.9532 47.9403 61.457 48.9754C55.9608 50.0104 51.0235 51.18 47.4733 52.0806C45.7033 52.536 44.2749 52.95 43.333 53.2295C42.8301 53.4082 42.3097 53.5331 41.7804 53.6021C42.2587 53.3616 42.7575 53.1642 43.2709 53.0121C44.2438 52.6706 45.6515 52.1944 47.4111 51.6872C50.9407 50.6522 55.878 49.4204 61.3949 48.3647C66.0682 47.4711 70.7838 46.8147 75.5235 46.3981C77.3556 46.2428 78.8357 46.1807 79.8708 46.16C80.4025 46.1238 80.9365 46.1412 81.4648 46.2118Z" fill="#263238"/>
<path d="M24.3499 97.8615C24.2396 97.7116 24.1491 97.5481 24.0808 97.375L23.3977 95.9362C22.8077 94.6838 22.0107 92.8311 21.0584 90.5643C19.1332 86.01 16.6801 79.634 14.0717 72.5541C11.4634 65.4743 9.062 59.0983 7.24028 54.4923C6.35013 52.2565 5.61526 50.4244 5.06667 49.0582L4.48701 47.578C4.40667 47.4073 4.35094 47.2261 4.32142 47.0398C4.43178 47.1896 4.52222 47.3531 4.59052 47.5263L5.27367 48.965C5.8533 50.2174 6.66066 52.0702 7.61292 54.337C9.53814 58.8913 11.9912 65.2673 14.5996 72.3471C17.208 79.427 19.6093 85.8029 21.431 90.409C22.3212 92.6447 23.0561 94.4768 23.5943 95.8431C23.8324 96.4331 24.0291 96.8782 24.1843 97.3232C24.2647 97.4939 24.3204 97.6751 24.3499 97.8615Z" fill="#263238"/>
<path d="M77.221 80.814C77.0553 80.9091 76.8778 80.9821 76.6931 81.0313L75.1613 81.5488L69.4995 83.3809C64.7175 84.9335 58.1137 87.1486 50.8683 89.5913C43.6228 92.0341 36.988 94.2077 32.175 95.6568C29.7736 96.3917 27.8174 96.9506 26.4614 97.3232L24.8985 97.7269C24.7168 97.7846 24.5294 97.8228 24.3396 97.8408C24.5053 97.7457 24.6828 97.6726 24.8674 97.6234L26.3993 97.1059L32.0612 95.2738C36.8432 93.7212 43.4469 91.5062 50.6923 89.0634C57.9378 86.6207 64.5622 84.447 69.3752 82.9979C71.7869 82.263 73.7328 81.7041 75.0991 81.3315L76.6621 80.9278C76.8438 80.8701 77.0312 80.8319 77.221 80.814Z" fill="#263238"/>
</svg>
