<svg width="25" height="17" viewBox="0 0 25 17" fill="none" xmlns="http://www.w3.org/2000/svg">
<path d="M13.307 9.30322L9.48838 15.8432L5.66984 9.30322H13.307ZM14.3299 8.71869H4.64272L9.48838 16.9999L14.3299 8.71869Z" fill="#263238"/>
<path d="M19.946 1.16902L23.7646 7.70897H16.1274L19.946 1.16902ZM19.946 0L15.1003 8.28122H24.7917L19.946 0Z" fill="#263238"/>
<path d="M0 0L4.06293 7.32476L8.50271 0.183926L0 0Z" fill="#4CAF4F"/>
<path d="M9.48852 0.641725L13.7502 7.92562H5.21852L9.48852 0.641725Z" fill="#4CAF4F"/>
<path d="M14.8477 9.51582L19.1136 17H10.3789L14.7152 9.51582H14.8477Z" fill="#4CAF4F"/>
<path d="M15.7713 9.06204L19.946 16.4318L24.1787 9.06204H15.7713Z" fill="#4CAF4F"/>
</svg>
