<svg width="57" height="5" viewBox="0 0 57 5" fill="none" xmlns="http://www.w3.org/2000/svg">
<g opacity="0.2">
<path d="M4.25668 2.28715C4.22615 2.7033 4.07414 3.10132 3.81948 3.43187C3.56483 3.76242 3.21874 4.01093 2.82415 4.1466C2.42955 4.28227 2.00381 4.29912 1.59972 4.19507C1.19564 4.09101 0.830988 3.87064 0.551002 3.56125C0.271015 3.25187 0.0880187 2.86707 0.0246908 2.45464C-0.0386372 2.04221 0.020489 1.62026 0.194755 1.24113C0.369021 0.861994 0.650763 0.542364 1.00501 0.321868C1.35926 0.101371 1.77043 -0.0102894 2.18755 0.000745621C2.76393 0.032862 3.30441 0.290935 3.69175 0.718953C4.0791 1.14697 4.28208 1.71044 4.25668 2.28715Z" fill="white"/>
<path d="M10.8468 2.3182C10.8672 2.60986 10.8273 2.90257 10.7297 3.17817C10.6321 3.45376 10.4788 3.70633 10.2794 3.92015C10.08 4.13396 9.83868 4.30447 9.57055 4.42104C9.30242 4.53762 9.01317 4.59778 8.7208 4.59778C8.42842 4.59778 8.13917 4.53762 7.87104 4.42104C7.60291 4.30447 7.36164 4.13396 7.16223 3.92015C6.96282 3.70633 6.80953 3.45376 6.71191 3.17817C6.61429 2.90257 6.57442 2.60986 6.59478 2.3182C6.57442 2.02653 6.61429 1.7338 6.71191 1.4582C6.80953 1.18261 6.96282 0.930036 7.16223 0.716219C7.36164 0.502402 7.60291 0.3319 7.87104 0.215324C8.13917 0.0987485 8.42842 0.0385823 8.7208 0.0385823C9.01317 0.0385823 9.30242 0.0987485 9.57055 0.215324C9.83868 0.3319 10.08 0.502402 10.2794 0.716219C10.4788 0.930036 10.6321 1.18261 10.7297 1.4582C10.8273 1.7338 10.8672 2.02653 10.8468 2.3182Z" fill="white"/>
<path d="M17.4474 2.34922C17.4168 2.76537 17.2648 3.16339 17.0102 3.49394C16.7555 3.82449 16.4094 4.07301 16.0148 4.20868C15.6202 4.34435 15.1945 4.3612 14.7904 4.25714C14.3863 4.15308 14.0217 3.93271 13.7417 3.62333C13.4617 3.31394 13.2787 2.92915 13.2154 2.51672C13.1521 2.10428 13.2112 1.68234 13.3855 1.3032C13.5597 0.924068 13.8415 0.604438 14.1957 0.383942C14.55 0.163445 14.9611 0.0517844 15.3783 0.0628195C15.9537 0.0975553 16.4926 0.356388 16.8794 0.783805C17.2662 1.21122 17.4701 1.77321 17.4474 2.34922Z" fill="white"/>
<path d="M24.0375 2.38026C24.007 2.79641 23.855 3.19443 23.6003 3.52498C23.3457 3.85553 22.9996 4.10404 22.605 4.23971C22.2104 4.37539 21.7847 4.39223 21.3806 4.28818C20.9765 4.18412 20.6119 3.96375 20.3319 3.65436C20.0519 3.34498 19.8689 2.96022 19.8055 2.54778C19.7422 2.13535 19.8014 1.71337 19.9756 1.33424C20.1499 0.955105 20.4316 0.635475 20.7859 0.414979C21.1401 0.194482 21.5513 0.0828214 21.9684 0.0938564C22.5438 0.128592 23.0827 0.387424 23.4695 0.814842C23.8563 1.24226 24.0602 1.80425 24.0375 2.38026Z" fill="white"/>
<path d="M30.6277 2.40096C30.5992 2.81772 30.4488 3.21691 30.1952 3.5489C29.9417 3.88089 29.5961 4.13105 29.2016 4.26828C28.807 4.40551 28.3809 4.42375 27.976 4.32075C27.5712 4.21775 27.2055 3.99806 26.9245 3.68896C26.6435 3.37985 26.4595 2.99498 26.3955 2.58219C26.3314 2.16939 26.3901 1.74689 26.5642 1.36716C26.7383 0.987428 27.0201 0.667237 27.3747 0.446382C27.7293 0.225528 28.141 0.113722 28.5586 0.124913C29.1321 0.159637 29.6694 0.417033 30.0559 0.842205C30.4425 1.26738 30.6476 1.8267 30.6277 2.40096Z" fill="white"/>
<path d="M37.2282 2.432C37.1999 2.84661 37.0511 3.2439 36.8 3.57501C36.5488 3.90612 36.2064 4.15662 35.8147 4.29562C35.4231 4.43462 34.9994 4.45608 34.5957 4.35737C34.192 4.25867 33.826 4.04407 33.5427 3.74004C33.2594 3.436 33.0711 3.05578 33.0011 2.64615C32.9311 2.23652 32.9824 1.81536 33.1487 1.4345C33.315 1.05364 33.589 0.729676 33.9369 0.502517C34.2849 0.275358 34.6917 0.154891 35.1073 0.155948C35.69 0.177521 36.2404 0.429197 36.638 0.855812C37.0355 1.28243 37.2477 1.84921 37.2282 2.432Z" fill="white"/>
<path d="M43.8184 2.46303C43.8387 2.75469 43.7989 3.04743 43.7012 3.32303C43.6036 3.59862 43.4503 3.85119 43.2509 4.06501C43.0515 4.27882 42.8102 4.44933 42.5421 4.5659C42.274 4.68248 41.9847 4.74261 41.6923 4.74261C41.4 4.74261 41.1107 4.68248 40.8426 4.5659C40.5744 4.44933 40.3332 4.27882 40.1338 4.06501C39.9344 3.85119 39.7811 3.59862 39.6835 3.32303C39.5858 3.04743 39.546 2.75469 39.5663 2.46303C39.546 2.17136 39.5858 1.87862 39.6835 1.60303C39.7811 1.32743 39.9344 1.07486 40.1338 0.861047C40.3332 0.64723 40.5744 0.476759 40.8426 0.360184C41.1107 0.243608 41.4 0.183442 41.6923 0.183442C41.9847 0.183442 42.274 0.243608 42.5421 0.360184C42.8102 0.476759 43.0515 0.64723 43.2509 0.861047C43.4503 1.07486 43.6036 1.32743 43.7012 1.60303C43.7989 1.87862 43.8387 2.17136 43.8184 2.46303Z" fill="white"/>
<path d="M50.4085 2.49407C50.3803 2.90868 50.2314 3.306 49.9803 3.63711C49.7292 3.96823 49.3867 4.21869 48.9951 4.35769C48.6035 4.49669 48.1797 4.51815 47.7761 4.41945C47.3724 4.32074 47.0064 4.10615 46.7231 3.80211C46.4397 3.49808 46.2515 3.11786 46.1815 2.70823C46.1115 2.29859 46.1628 1.87744 46.3291 1.49657C46.4953 1.11571 46.7693 0.791749 47.1173 0.56459C47.4653 0.337431 47.8721 0.216996 48.2877 0.218052C48.8704 0.239625 49.4208 0.49127 49.8183 0.917884C50.2159 1.3445 50.4281 1.91128 50.4085 2.49407Z" fill="white"/>
<path d="M56.9987 2.5251C56.9702 2.94186 56.8198 3.34105 56.5662 3.67304C56.3127 4.00503 55.9672 4.25519 55.5726 4.39242C55.1781 4.52964 54.7519 4.54792 54.347 4.44492C53.9422 4.34192 53.5765 4.1222 53.2955 3.81309C53.0145 3.50399 52.8306 3.11912 52.7665 2.70633C52.7024 2.29353 52.7611 1.87103 52.9352 1.4913C53.1093 1.11157 53.3912 0.791376 53.7457 0.570522C54.1003 0.349667 54.512 0.237892 54.9296 0.249084C55.5031 0.283807 56.0404 0.541172 56.427 0.966344C56.8135 1.39152 57.0186 1.95084 56.9987 2.5251Z" fill="white"/>
</g>
</svg>
