<svg width="31" height="21" viewBox="0 0 31 21" fill="none" xmlns="http://www.w3.org/2000/svg">
<path d="M16.4381 11.4923L11.721 19.5711L7.00396 11.4923H16.4381ZM17.7018 10.7702H5.73518L11.721 21L17.7018 10.7702Z" fill="white"/>
<path d="M24.6393 1.44408L29.3563 9.52288H19.9222L24.6393 1.44408ZM24.6393 0L18.6534 10.2298H30.6251L24.6393 0Z" fill="white"/>
<path d="M0 0L5.01892 9.04826L10.5034 0.227204L0 0Z" fill="#4CAF4F"/>
<path d="M11.7212 0.792617L16.9857 9.79039H6.44647L11.7212 0.792617Z" fill="#4CAF4F"/>
<path d="M18.3414 11.7548L23.611 21.0001H12.8211L18.1777 11.7548H18.3414Z" fill="#4CAF4F"/>
<path d="M19.4822 11.1943L24.6392 20.2981L29.8679 11.1943H19.4822Z" fill="#4CAF4F"/>
</svg>
