<svg width="46" height="39" viewBox="0 0 46 39" fill="none" xmlns="http://www.w3.org/2000/svg">
<path d="M45.2679 26.4643C45.2679 33.3876 39.6555 39 32.7322 39L13.9286 39C12.0055 39 10.4465 37.441 10.4465 35.5179L10.4465 11.8393C10.4465 7.99299 13.5645 4.87497 17.4108 4.87497L41.7858 4.87497C43.7089 4.87497 45.2679 6.43398 45.2679 8.35712L45.2679 26.4643Z" fill="#E8F5E9"/>
<path d="M19.7171 16.4669C19.5494 16.4669 19.3937 16.4207 19.2554 16.3466V16.3486C19.2554 16.6124 19.1528 16.8602 18.9668 17.0457C18.7807 17.2318 18.5331 17.3343 18.2696 17.3343C18.0994 17.3343 17.9417 17.2871 17.8019 17.211C17.7878 17.4523 17.6914 17.6779 17.5192 17.8502C17.3332 18.0363 17.0856 18.1388 16.8219 18.1388C16.298 18.1388 15.8725 17.727 15.8419 17.2108C15.6798 17.2984 15.4965 17.3444 15.3074 17.3322C14.7921 17.2984 14.3884 16.8531 14.3884 16.3182V11.8843L13.8836 12.759C13.6913 13.0935 13.3313 13.3012 12.9437 13.3012C12.7549 13.3012 12.5683 13.2517 12.4031 13.157C12.1973 13.0377 12.0502 12.8462 11.989 12.6172C11.9274 12.388 11.9593 12.1482 12.0782 11.9428C12.0784 11.9428 13.7301 9.08243 13.8309 8.90673C13.8429 8.88031 13.877 8.80369 13.9061 8.73839C13.9338 8.67604 13.9576 8.61205 13.9804 8.54773C14.4785 7.14144 15.7119 6.26789 17.1994 6.26789C19.1311 6.26789 20.7026 7.97198 20.7026 10.0666L20.7028 15.4809C20.7028 15.7444 20.6004 15.992 20.4145 16.1783C20.2284 16.3643 19.9809 16.4669 19.717 16.4669L19.7171 16.4669ZM17.1994 6.7917C15.9213 6.7917 14.9025 7.51366 14.4741 8.72291C14.4467 8.7997 14.4182 8.87648 14.3849 8.95131C14.2882 9.16805 14.2882 9.16805 14.261 9.19922L14.2574 9.19611C14.1225 9.45059 13.7218 10.1445 12.5318 12.205C12.4829 12.2895 12.4699 12.3876 12.4949 12.4814C12.5201 12.5753 12.5807 12.6544 12.6645 12.7028C12.9247 12.8522 13.2811 12.7558 13.4294 12.4973L14.4236 10.7762C14.483 10.6736 14.6031 10.6232 14.7183 10.6544C14.8328 10.6851 14.9124 10.789 14.9124 10.9074V16.3183C14.9124 16.5737 15.105 16.794 15.3418 16.8096C15.4783 16.8168 15.6056 16.771 15.7013 16.6755C15.7882 16.5886 15.8361 16.4727 15.8361 16.3489V12.81C15.8361 12.6653 15.9535 12.548 16.0982 12.548C16.2429 12.548 16.3602 12.6652 16.3602 12.81L16.36 17.1532C16.36 17.4079 16.5673 17.6151 16.8219 17.6151C16.9456 17.6151 17.0618 17.5672 17.1489 17.4802C17.2359 17.3931 17.2838 17.2769 17.2838 17.1532V12.81C17.2838 12.6653 17.4009 12.548 17.5458 12.548C17.6905 12.548 17.8079 12.6652 17.8079 12.81L17.8077 16.3081V16.3488C17.8077 16.6033 18.0149 16.8105 18.2697 16.8105C18.3933 16.8105 18.5091 16.7625 18.5967 16.6752C18.6837 16.5884 18.7316 16.4725 18.7316 16.3487V12.8098C18.7316 12.6651 18.8488 12.5478 18.9936 12.5478C19.1384 12.5478 19.2557 12.665 19.2557 12.8098L19.2553 15.481C19.2553 15.7358 19.4626 15.9431 19.7171 15.9431C19.8409 15.9431 19.9568 15.895 20.0437 15.8082C20.131 15.7209 20.1788 15.6048 20.1788 15.481L20.1789 10.0668C20.1789 8.26109 18.8424 6.79176 17.1994 6.79176L17.1994 6.7917Z" fill="#103E13"/>
<path d="M9.42207 20.2299L13.2244 17.9489C13.6828 17.6736 14.2727 17.7906 14.5667 18.2153C14.674 18.3701 14.7288 18.5504 14.7373 18.734C14.8791 18.66 15.0333 18.6198 15.1903 18.6198C15.2707 18.6198 15.3515 18.6298 15.4312 18.6497C15.6867 18.7135 15.9019 18.8731 16.0373 19.0989C16.1728 19.325 16.2124 19.59 16.1486 19.8451C16.0897 20.0813 15.9461 20.28 15.7464 20.4163C15.886 20.4987 16.0065 20.6111 16.0921 20.7541C16.2277 20.9802 16.2672 21.2451 16.2035 21.5006C16.1397 21.7557 15.9801 21.971 15.754 22.1067L15.7526 22.1075C15.8898 22.1897 16.0081 22.3009 16.0928 22.4419C16.2285 22.668 16.268 22.9329 16.2042 23.1884C16.1402 23.4437 15.9806 23.659 15.7548 23.7945L11.1121 26.5798C10.2456 27.0994 9.24391 27.2787 8.29194 27.0843C7.33144 26.8881 6.53597 26.336 6.0523 25.5297C5.28687 24.254 5.40158 22.7467 6.35109 21.5964C6.39457 21.5439 6.43739 21.4904 6.47628 21.4349C6.51746 21.3764 6.56554 21.3074 6.58194 21.2838C6.68022 21.1082 8.28394 18.2188 8.28377 18.2192C8.44571 17.927 8.74925 17.7615 9.06231 17.7617C9.20834 17.7617 9.3565 17.7976 9.49318 17.8735C9.65824 17.9657 9.79689 18.1 9.89386 18.262C10.0932 18.5942 10.1003 19.01 9.91256 19.3465L9.42207 20.2299ZM9.44487 18.5314C9.39401 18.4465 9.32411 18.3789 9.23863 18.331C9.06192 18.2332 8.83943 18.2969 8.74214 18.4729C7.5946 20.5403 7.20342 21.2449 7.05246 21.4956L7.0559 21.4964C7.04327 21.5384 7.04327 21.5384 6.90512 21.7358C6.85819 21.8026 6.80716 21.8667 6.75515 21.9299C5.93868 22.9191 5.84388 24.164 6.50132 25.2602C6.90856 25.9391 7.58162 26.4046 8.39657 26.571C9.22039 26.7385 10.0887 26.5826 10.8423 26.1304L15.4854 23.3451C15.5914 23.2816 15.6662 23.1807 15.6961 23.0611C15.726 22.9416 15.7074 22.8174 15.6438 22.7114C15.5128 22.4932 15.2285 22.4215 15.0103 22.5529L12.7197 23.9271C12.5957 24.0016 12.4346 23.9615 12.3603 23.8373C12.2858 23.7133 12.326 23.5523 12.45 23.4778L14.7407 22.1037L15.4846 21.6574C15.5906 21.5937 15.6656 21.4928 15.6954 21.3735C15.7253 21.2539 15.7068 21.1295 15.6431 21.0237C15.512 20.8053 15.2277 20.7343 15.0096 20.8652L11.975 22.6857C11.8506 22.7603 11.69 22.72 11.6155 22.5959C11.541 22.4719 11.5814 22.3109 11.7053 22.2364L15.4296 20.0022C15.5356 19.9385 15.6105 19.8378 15.6403 19.7182C15.6702 19.5987 15.6516 19.4745 15.5881 19.3685C15.5246 19.2627 15.4237 19.1879 15.3041 19.158C15.1839 19.1282 15.0601 19.1467 14.9545 19.21L14.265 19.6237C14.2649 19.6237 14.2649 19.6238 14.2647 19.6238H14.2645L11.2301 21.4443C11.1057 21.5191 10.9449 21.4787 10.8706 21.3545C10.7961 21.2305 10.8365 21.0695 10.9604 20.995L13.995 19.1746C14.101 19.1109 14.1759 19.01 14.2058 18.8907C14.2386 18.7598 14.2137 18.6259 14.1359 18.5137C14.001 18.3186 13.7126 18.2668 13.4939 18.3982L8.85414 21.1816C8.75257 21.2423 8.62246 21.2276 8.5373 21.1453C8.45199 21.063 8.43279 20.9335 8.49021 20.83L9.455 19.0917C9.5518 18.918 9.54803 18.7034 9.44482 18.5314L9.44487 18.5314Z" fill="#103E13"/>
<path d="M27.5912 25.5295C27.1077 26.3359 26.3124 26.8879 25.3517 27.0841C24.3996 27.2782 23.3982 27.0992 22.5316 26.5796L17.8885 23.7942C17.6625 23.6587 17.5027 23.4434 17.4387 23.1878C17.3752 22.9326 17.4149 22.6676 17.5503 22.4419C17.6348 22.3008 17.7533 22.1895 17.8906 22.1073L17.8893 22.1065C17.6633 21.971 17.5035 21.7557 17.4399 21.5004C17.3759 21.2451 17.4156 20.9799 17.5511 20.7539C17.6384 20.6087 17.758 20.4951 17.8945 20.4145C17.6963 20.2782 17.5536 20.0802 17.4948 19.8452C17.4309 19.5897 17.4706 19.3247 17.6061 19.0989C17.7415 18.873 17.9569 18.7134 18.2122 18.6495C18.2919 18.6295 18.3728 18.6197 18.4529 18.6197C18.6101 18.6199 18.7643 18.6597 18.9061 18.7339C18.9148 18.5503 18.9694 18.37 19.0767 18.2152C19.3709 17.7908 19.9603 17.6733 20.4194 17.9488L24.2216 20.2294L23.7315 19.3467C23.5434 19.0097 23.5503 18.5939 23.7497 18.2615C23.8468 18.0997 23.9856 17.9653 24.1515 17.8723C24.2878 17.7968 24.4355 17.761 24.5812 17.761C24.8941 17.7612 25.198 17.9263 25.3597 18.2185C25.9235 19.2343 26.9874 21.1501 27.0622 21.2838C27.0781 21.307 27.1262 21.3759 27.1674 21.4344C27.2066 21.4901 27.2489 21.5432 27.2927 21.5961C28.2421 22.7469 28.3566 24.2539 27.5912 25.5295L27.5912 25.5295ZM26.8885 21.93C26.8363 21.8668 26.7851 21.8023 26.7385 21.7359C26.5968 21.5347 26.5931 21.5295 26.5825 21.4768C26.4168 21.2026 26.0125 20.4748 24.9012 18.4727C24.8037 18.297 24.5822 18.2328 24.4058 18.3303C24.319 18.3788 24.2493 18.4466 24.1984 18.5314C24.0954 18.7032 24.0915 18.9178 24.1888 19.0921L25.1532 20.8298C25.2108 20.9335 25.1916 21.0628 25.1065 21.1452C25.0215 21.2277 24.8915 21.2422 24.7895 21.1814L20.1497 18.398C19.931 18.2669 19.6427 18.3183 19.5075 18.5135C19.4297 18.6258 19.405 18.7597 19.4375 18.8904C19.4673 19.0099 19.5423 19.1106 19.6485 19.1743C19.6488 19.1744 19.649 19.1748 19.6493 19.1749L22.6829 20.9949C22.807 21.0694 22.8472 21.2302 22.7727 21.3544C22.6982 21.4782 22.5375 21.5188 22.4132 21.4441L18.6888 19.2099C18.5831 19.1466 18.4587 19.1279 18.3393 19.1579C18.2195 19.1877 18.1188 19.2626 18.0553 19.3687C17.9916 19.4745 17.9732 19.5988 18.0028 19.7182C18.0326 19.8377 18.1076 19.9386 18.2136 20.0022L18.9384 20.4369L21.9378 22.2365C22.0619 22.311 22.1021 22.4718 22.0276 22.596C21.9531 22.7199 21.7925 22.7602 21.6681 22.6857L18.6338 20.8653C18.4156 20.734 18.1314 20.8052 18.0002 21.0238C17.9365 21.1298 17.9181 21.254 17.9477 21.3734C17.9775 21.4929 18.0525 21.5936 18.1587 21.6574L18.9026 22.1037L21.1929 23.4779C21.317 23.5524 21.3572 23.7132 21.2827 23.8374C21.2082 23.9613 21.0476 24.002 20.9232 23.9271L18.6328 22.553C18.5272 22.4896 18.4033 22.4709 18.2832 22.501C18.1637 22.5308 18.0627 22.6056 17.9992 22.7115C17.9357 22.8175 17.9171 22.9418 17.9467 23.0611C17.9765 23.1806 18.0515 23.2813 18.1577 23.3451L22.8008 26.1305C23.5542 26.5825 24.4232 26.739 25.2465 26.571C26.0613 26.4047 26.7344 25.9392 27.1416 25.2602C27.7997 24.1638 27.705 22.9188 26.8888 21.9299L26.8885 21.93Z" fill="#103E13"/>
</svg>
