<svg width="18" height="13" viewBox="0 0 18 13" fill="none" xmlns="http://www.w3.org/2000/svg">
<path fill-rule="evenodd" clip-rule="evenodd" d="M16.0324 0.386247C16.8069 0.598777 17.4169 1.22499 17.6239 2.02023C18 3.46151 18 6.46876 18 6.46876C18 6.46876 18 9.47589 17.6239 10.9173C17.4169 11.7125 16.8069 12.3387 16.0324 12.5514C14.6288 12.9375 9.00001 12.9375 9.00001 12.9375C9.00001 12.9375 3.37122 12.9375 1.96752 12.5514C1.19301 12.3387 0.583057 11.7125 0.376057 10.9173C0 9.47589 0 6.46876 0 6.46876C0 6.46876 0 3.46151 0.376057 2.02023C0.583057 1.22499 1.19301 0.598777 1.96752 0.386247C3.37122 0 9.00001 0 9.00001 0C9.00001 0 14.6288 0 16.0324 0.386247ZM7.31252 3.93744V9.56245L11.8125 6.75005L7.31252 3.93744Z" fill="white"/>
</svg>
