<svg width="148" height="288" viewBox="0 0 148 288" fill="none" xmlns="http://www.w3.org/2000/svg">
<path d="M50.3223 282.891V274.055L34.4783 273.941L34.344 287.305L35.3258 287.377C39.6976 287.656 57.5673 288.069 60.5025 287.16C63.7684 286.147 50.3223 282.891 50.3223 282.891Z" fill="#4CAF4F"/>
<path d="M60.8746 286.333C60.8746 286.478 54.9421 286.602 47.6351 286.602C40.3281 286.602 34.3957 286.478 34.3957 286.333C34.3957 286.188 40.3281 286.064 47.6351 286.064C54.9421 286.064 60.8746 286.188 60.8746 286.333Z" fill="#263238"/>
<path d="M50.6013 284.7C50.467 284.628 50.6013 284.163 50.9217 283.667C51.2421 283.17 51.6762 282.964 51.7796 283.067C51.8829 283.17 51.6659 283.563 51.3558 283.987C51.0457 284.411 50.7357 284.772 50.6013 284.7Z" fill="#263238"/>
<path d="M51.6142 285.279C51.4695 285.279 51.5419 284.7 51.8519 284.152C52.162 283.604 52.5754 283.274 52.6891 283.356C52.8028 283.439 52.6167 283.904 52.3273 284.39C52.038 284.876 51.7486 285.33 51.6142 285.279Z" fill="#263238"/>
<path d="M39.1706 286.292C39.1086 286.292 38.8709 286.106 38.5298 285.713C38.1135 285.208 37.6497 284.744 37.1449 284.328C36.6484 283.931 36.057 283.671 35.4292 283.573C34.9435 283.511 34.6334 283.573 34.6024 283.511C34.5714 283.449 34.8711 283.232 35.4395 283.191C36.1897 283.175 36.9215 283.424 37.5066 283.894C38.0548 284.341 38.517 284.884 38.8709 285.496C39.1086 285.951 39.2326 286.25 39.1706 286.292Z" fill="#263238"/>
<path d="M50.653 283.036C50.7254 283.16 50.4566 283.47 50.0019 283.636C49.5471 283.801 49.1441 283.739 49.1234 283.636C49.1027 283.532 49.4231 283.315 49.8159 283.17C50.2086 283.026 50.5703 282.912 50.653 283.036Z" fill="#263238"/>
<path d="M50.4049 282.178C50.4049 282.333 49.9915 282.457 49.4541 282.468C48.9167 282.478 48.4929 282.354 48.5033 282.209C48.5136 282.065 48.9373 281.93 49.4541 281.92C49.9709 281.91 50.3843 282.034 50.4049 282.178Z" fill="#263238"/>
<path d="M89.3378 282.891V274.055L73.4939 273.941L73.3595 287.17L74.3414 287.243C78.7132 287.522 96.5932 288.069 99.518 287.16C102.784 286.147 89.3378 282.891 89.3378 282.891Z" fill="#4CAF4F"/>
<path d="M99.8901 286.354C99.8901 286.498 93.968 286.622 86.6507 286.622C79.3333 286.622 73.4215 286.498 73.4215 286.354C73.4215 286.209 79.3436 286.085 86.6507 286.085C93.9577 286.085 99.8901 286.209 99.8901 286.354Z" fill="#263238"/>
<path d="M89.6169 284.7C89.4928 284.628 89.6169 284.163 89.9373 283.667C90.2576 283.17 90.6917 282.964 90.7951 283.067C90.8984 283.17 90.6814 283.563 90.3713 283.987C90.0613 284.411 89.7512 284.772 89.6169 284.7Z" fill="#263238"/>
<path d="M90.6298 285.279C90.4954 285.279 90.5574 284.7 90.8778 284.152C91.1982 283.604 91.6013 283.274 91.715 283.356C91.8286 283.439 91.6323 283.904 91.3429 284.39C91.0535 284.876 90.7744 285.33 90.6298 285.279Z" fill="#263238"/>
<path d="M78.1861 286.292C78.1241 286.292 77.8967 286.106 77.5453 285.713C77.129 285.208 76.6652 284.744 76.1604 284.328C75.664 283.931 75.0726 283.671 74.4448 283.573C73.9693 283.511 73.6489 283.573 73.6179 283.511C73.5869 283.449 73.8867 283.232 74.4551 283.191C75.2053 283.175 75.9371 283.424 76.5221 283.894C77.0731 284.338 77.5359 284.881 77.8864 285.496C78.1241 285.951 78.2481 286.25 78.1861 286.292Z" fill="#263238"/>
<path d="M89.6686 283.036C89.7409 283.16 89.4722 283.47 89.0174 283.636C88.5627 283.801 88.1596 283.739 88.1389 283.636C88.1183 283.532 88.4387 283.315 88.8314 283.17C89.2241 283.026 89.5859 282.912 89.6686 283.036Z" fill="#263238"/>
<path d="M89.4412 282.178C89.4412 282.333 89.0278 282.457 88.4903 282.468C87.9529 282.478 87.5395 282.354 87.5498 282.209C87.5601 282.065 87.9736 281.93 88.4903 281.92C89.0071 281.91 89.4412 282.034 89.4412 282.178Z" fill="#263238"/>
<path d="M147.711 20.4796C147.298 20.0558 146.275 20.2625 146.275 20.2625C146.377 19.6675 146.377 19.0593 146.275 18.4642C146.089 17.8854 144.786 17.9991 144.786 17.9991C144.726 17.5118 144.726 17.0189 144.786 16.5315C144.797 16.4235 144.774 16.3149 144.72 16.2206C144.666 16.1262 144.585 16.0507 144.487 16.0044C143.871 15.7532 143.209 15.6335 142.544 15.653C141.748 15.0846 144.972 10.5681 146.171 9.12115C147.37 7.67421 147.153 6.54768 146.089 6.54768C145.355 6.54768 141.593 10.8885 140.435 12.3458C139.278 13.803 136.208 17.8544 136.105 14.6195C136.001 11.3846 134.699 8.94546 133.883 8.53205C133.066 8.11864 132.198 9.09014 132.643 9.9893C133.033 11.0108 133.277 12.0826 133.366 13.1726C133.478 14.0408 133.44 14.9219 133.252 15.777C132.91 17.3682 132.443 18.9301 131.857 20.4486H131.774C131.774 20.4486 109.223 42.0802 107.59 43.6202C106.133 45.0051 76.8219 41.9769 70.9411 41.3568C68.9428 41.0643 66.9249 40.9261 64.9053 40.9434C62.3525 41.0571 61.8978 41.4188 59.3553 41.4498C52.9345 41.5211 46.5285 42.0843 40.1938 43.1344C37.3253 43.6221 34.646 44.8882 32.448 46.7946C30.25 48.701 28.6178 51.1745 27.7294 53.9451C21.8073 72.4452 8.3922 116.236 6.02543 140.834C4.23698 144.077 2.6224 147.413 1.18854 150.828C-0.47543 155.355 -0.0723558 155.51 0.485747 155.613C1.99469 155.892 3.71034 147.768 4.35113 149.732C4.99191 151.696 1.09553 159.416 2.67682 159.644C4.74387 159.933 6.38717 151.375 6.58354 150.693C6.77991 150.011 7.8031 150.228 7.61707 150.869C7.31734 151.779 4.41314 161.421 6.43885 161.731C7.55506 161.897 7.67908 159.861 7.67908 159.861C7.67908 159.861 9.74613 150.631 10.6866 150.817C11.6271 151.003 10.6246 156.45 10.1492 158.269C9.67378 160.088 10.3352 161.008 11.3067 160.563C11.9682 160.253 13.5495 154.724 13.9836 152.926C14.4177 151.127 15.5029 146.146 16.9601 149.029C18.4174 151.913 20.6291 153.587 21.5386 153.629C21.7436 153.605 21.9368 153.52 22.0933 153.386C22.2499 153.252 22.3626 153.074 22.4171 152.875C22.4716 152.676 22.4653 152.465 22.399 152.27C22.3327 152.074 22.2094 151.903 22.0451 151.779C21.2628 151.015 20.5914 150.145 20.0504 149.195C19.5682 148.455 19.2185 147.636 19.0168 146.776C18.6004 145.062 18.358 143.31 18.2934 141.547L18.128 140.513C20.4431 129.051 27.1093 95.4101 36.7314 73.9231L40.6795 82.0466L42.3951 88.0617L31.8739 114.034L76.7495 113.445L70.0523 87.669L78.1861 60.7974C86.9814 60.9937 109.564 61.3245 113.326 59.6191C118.059 57.5521 142.544 26.6291 142.544 26.6291C144.14 25.3889 145.668 24.0641 147.122 22.6603C147.122 22.6603 148.61 21.4098 147.711 20.4796Z" fill="#FFBE9D"/>
<path d="M29.8999 94.8417C31.2021 90.3975 37.889 68.4248 37.889 68.4248C37.889 68.4248 41.1756 86.3358 40.3075 88.4958C39.5089 90.345 38.5654 92.1282 37.4859 93.8288C29.8999 105.373 30.892 111.151 30.892 111.151L76.7288 109.755C76.8322 103.348 73.0392 88.4441 72.2537 86.067C71.4682 83.6899 74.083 75.9075 74.083 75.9075C74.083 75.9075 79.2506 70.6469 79.0646 67.939C78.9665 65.5067 78.6657 63.0867 78.1654 60.7044L106.071 61.7379L105.192 42.8244L65.112 38.8143C63.7168 42.752 51.0974 40.8193 51.0974 40.8193C37.4756 41.2741 36.6281 43.7752 30.9644 48.178C25.3007 52.5809 15.9266 90.3665 15.9266 90.3665L29.8999 94.8417Z" fill="#4CAF4F"/>
<path d="M56.9989 90.3665C56.2045 90.5084 55.3955 90.5501 54.5908 90.4905C53.0921 90.4905 51.0354 90.3872 48.772 90.1598C46.5086 89.9324 44.4622 89.612 43.005 89.3226C42.2014 89.2191 41.4135 89.0179 40.6589 88.7232C41.4669 88.7235 42.2731 88.7996 43.067 88.9506C44.5346 89.1366 46.5706 89.395 48.8237 89.6224C51.0768 89.8497 53.1231 90.0048 54.6011 90.1081C55.4067 90.1183 56.2096 90.2048 56.9989 90.3665Z" fill="#263238"/>
<path d="M60.1408 86.4701C59.3461 86.8594 58.5059 87.1476 57.6396 87.3279C53.5162 88.4114 49.2621 88.9158 44.9996 88.8266C44.1176 88.8553 43.2355 88.7719 42.3745 88.5785C43.245 88.4686 44.1225 88.4237 44.9996 88.4442C46.6223 88.3925 48.8547 88.2788 51.3145 87.9894C53.7743 87.7 55.9653 87.2866 57.5156 86.9559C58.3767 86.7259 59.2544 86.5635 60.1408 86.4701Z" fill="#263238"/>
<path d="M75.561 69.0862C75.5401 69.8742 75.4326 70.6575 75.2406 71.422C74.9718 72.8586 74.5584 74.8223 74.0313 76.972C73.5042 79.1218 72.9978 81.1061 72.5431 82.4497C72.3602 83.2188 72.0897 83.9643 71.7369 84.6718C71.7945 83.8863 71.9401 83.1097 72.171 82.3567C72.5637 80.7444 73.0082 78.884 73.5042 76.848C74.0003 74.812 74.4758 72.9516 74.8685 71.3393C75.0084 70.5633 75.2409 69.8069 75.561 69.0862Z" fill="#263238"/>
<path d="M30.3856 92.2062C27.9946 91.8369 25.6349 91.2876 23.3266 90.5629C20.968 90.0114 18.6535 89.2859 16.402 88.3925C18.7919 88.7677 21.1511 89.3169 23.461 90.0358C25.8201 90.5853 28.1348 91.3108 30.3856 92.2062Z" fill="#263238"/>
<path d="M78.6615 60.477C78.2717 60.5441 77.8732 60.5441 77.4833 60.477C76.4038 60.3663 75.3438 60.1125 74.3311 59.7225C72.6403 59.0872 71.1012 58.1052 69.8125 56.8397C68.5239 55.5742 67.5142 54.0531 66.8484 52.3741C66.1124 50.5272 65.7981 48.5393 65.9285 46.5554C65.9746 44.9191 66.464 43.3259 67.3444 41.9459C67.9637 41.0162 68.8888 40.3325 69.9593 40.0132C70.2453 39.9343 70.541 39.896 70.8378 39.8995C71.0445 39.8995 71.1478 39.8995 71.1478 39.8995C71.1478 39.8995 70.7137 39.8995 70.0213 40.1786C69.0392 40.5414 68.2063 41.2215 67.6545 42.1112C66.2489 44.323 65.8562 48.3641 67.3548 52.1364C68.0523 53.9151 69.1442 55.5124 70.5484 56.808C71.6989 57.8681 73.0241 58.7212 74.4654 59.3298C75.818 59.8643 77.2251 60.249 78.6615 60.477Z" fill="#263238"/>
<path d="M102.753 61.3658C102.494 58.1965 102.412 55.0152 102.505 51.8367C102.424 48.6609 102.521 45.483 102.794 42.318C103.053 45.4838 103.136 48.6616 103.042 51.8367C103.129 55.016 103.033 58.1977 102.753 61.3658Z" fill="#263238"/>
<path d="M64.8433 39.9719C64.957 37.6671 65.1947 35.0626 65.1947 35.0626C65.1947 35.0626 70.8997 34.4322 71.2408 28.5411C71.5819 22.65 71.2408 9.05914 71.2408 9.05914L60.9056 3.7675L49.4334 12.7902L51.2008 42.2456L61.722 42.9174C62.5263 42.9396 63.3065 42.6421 63.8916 42.0899C64.4767 41.5377 64.819 40.776 64.8433 39.9719Z" fill="#FFBE9D"/>
<path d="M65.8665 23.8799C65.8665 23.8799 65.8665 23.9936 65.7735 24.1279C65.6966 24.2254 65.5971 24.3027 65.4837 24.3531C65.3702 24.4035 65.2462 24.4255 65.1224 24.4173C64.4609 24.4173 63.8201 23.6525 63.5928 22.7637C63.4847 22.3328 63.4847 21.8819 63.5928 21.4511C63.614 21.263 63.6818 21.0832 63.7901 20.928C63.8984 20.7728 64.0437 20.6471 64.2129 20.5623C64.3519 20.5048 64.508 20.5048 64.6469 20.5623C64.75 20.6134 64.8335 20.6969 64.8847 20.8C64.957 20.9757 64.8847 21.0894 64.8847 21.079C64.8847 21.0687 64.8847 20.9757 64.7813 20.8723C64.7273 20.7983 64.6478 20.7468 64.5582 20.7277C64.4686 20.7087 64.375 20.7233 64.2956 20.769C64.1688 20.8456 64.0634 20.9531 63.9894 21.0814C63.9153 21.2097 63.8748 21.3546 63.8718 21.5028C63.7848 21.8872 63.7848 22.2862 63.8718 22.6706C64.0785 23.4768 64.6366 24.1279 65.1327 24.1899C65.2298 24.2031 65.3285 24.1961 65.4227 24.1694C65.517 24.1428 65.6047 24.097 65.6805 24.0349C65.8045 23.9522 65.8458 23.8695 65.8665 23.8799Z" fill="#EB996E"/>
<path d="M74.7858 5.87589C73.99 3.16805 71.1065 1.82447 68.4813 1.08033C64.4816 -0.0565438 60.1615 -0.552638 56.2547 0.883961C52.348 2.32056 47.6558 4.84236 47.6558 9.15216C45.3511 8.96612 44.0281 10.9815 43.1186 13.4826C42.5372 15.0064 42.1887 16.6092 42.0851 18.2368C41.7957 23.8799 40.2144 31.6727 36.5558 35.8068C34.4887 38.1115 31.6259 39.7031 30.4476 42.5763C29.4141 45.0671 29.9515 48.023 28.9904 50.5448C28.1325 52.7669 26.2412 54.3482 24.8563 56.2809C23.4453 58.4734 22.615 60.9886 22.4432 63.5902C22.2715 66.1918 22.764 68.7943 23.8744 71.1533C24.9929 73.4518 26.5675 75.4985 28.5025 77.1687C30.4375 78.8389 32.6923 80.0977 35.1295 80.8684C39.9571 82.3372 45.1052 82.3874 49.9606 81.0131C53.6045 80.1418 57.0038 78.4563 59.9031 76.0832C62.8697 73.6607 64.9072 70.2867 65.6701 66.5334C66.4039 62.3167 65.2257 58.0275 64.3472 53.8314C61.5981 40.5713 62.3835 39.8788 65.8562 27.5696C65.9389 27.3525 65.9802 27.1252 66.0422 26.9081C66.1042 26.6911 66.1352 26.5877 66.1766 26.4224C66.2752 25.9358 66.3271 25.4409 66.3316 24.9444C65.8244 25.133 65.2739 25.1729 64.7447 25.0594C64.2156 24.9459 63.7299 24.6837 63.3447 24.3036C62.9586 23.8984 62.6894 23.3962 62.5657 22.8503C62.4419 22.3044 62.4683 21.7352 62.6419 21.2031C62.8858 20.6211 63.2491 20.0968 63.7085 19.6642C64.1678 19.2315 64.7129 18.9002 65.3084 18.6916C66.4556 18.2162 67.6855 17.9681 68.812 17.441C71.1995 16.3041 72.8531 13.9477 73.9797 11.4776C74.9059 9.76559 75.1917 7.77958 74.7858 5.87589Z" fill="#263238"/>
<path d="M66.2799 24.1589C66.4983 24.4816 66.6786 24.8284 66.8173 25.1925C67.1274 25.8436 67.5408 26.7634 67.9955 27.8279L68.0782 28.0243H67.8612L66.8277 28.1173C66.1145 28.1173 65.5151 28.2517 64.8123 28.2413C64.7511 28.2276 64.6944 28.1986 64.6474 28.157C64.6004 28.1155 64.5647 28.0627 64.5436 28.0036C64.5128 27.9096 64.5128 27.8083 64.5436 27.7143C64.5675 27.575 64.5985 27.437 64.6366 27.3008L64.8226 26.567C64.9161 26.0775 65.0616 25.5994 65.2567 25.1408C65.2375 25.6398 65.1647 26.1353 65.0397 26.6187L64.895 27.3525C64.8433 27.6006 64.7503 27.983 64.895 27.952C65.4117 27.952 66.1455 27.8383 66.8277 27.7969L67.8612 27.7039L67.7268 27.9313C67.2824 26.8978 66.9103 25.9263 66.6933 25.2545C66.5029 24.9114 66.3636 24.5423 66.2799 24.1589Z" fill="#4CAF4F"/>
<path d="M30.8921 111.151L76.7289 109.755L96.6759 187.621L93.0069 276.938H68.7707L71.7369 189.523L54.012 135.314L56.7405 280.401L32.246 280.762L29.6725 144.389C29.5588 140.596 28.3186 132.049 28.7837 128.287L30.8921 111.151Z" fill="#263238"/>
<path d="M60.1098 136.42C59.3595 136.468 58.6063 136.422 57.867 136.286C56.4821 136.121 54.5907 135.831 52.5134 135.418C50.436 135.004 48.5756 134.529 47.2321 134.147C46.5138 133.989 45.8191 133.739 45.165 133.402C45.165 133.247 48.5343 134.054 52.6684 134.891C56.8025 135.728 60.1304 136.265 60.1098 136.42Z" fill="#455A64"/>
<path d="M92.7588 272.039C92.7588 272.184 87.2708 272.308 80.5012 272.308C73.7316 272.308 68.2333 272.184 68.2333 272.039C68.2333 271.895 73.7213 271.771 80.5012 271.771C87.2811 271.771 92.7588 271.884 92.7588 272.039Z" fill="#455A64"/>
<path d="M56.5234 276.628C56.5234 276.783 51.1905 276.897 44.6172 276.897C38.044 276.897 32.7214 276.783 32.7214 276.628C32.7214 276.473 38.0544 276.359 44.6172 276.359C51.1801 276.359 56.5234 276.484 56.5234 276.628Z" fill="#455A64"/>
<path d="M53.3608 276.256C53.2161 276.256 52.5754 244.558 51.9242 205.46C51.2731 166.362 50.8907 134.643 51.0251 134.643C51.1594 134.643 51.8209 166.331 52.4617 205.449C53.1025 244.568 53.5159 276.256 53.3608 276.256Z" fill="#455A64"/>
<path d="M89.5032 272.039C89.4919 271.898 89.4919 271.757 89.5032 271.616V270.375C89.5032 269.259 89.5859 267.657 89.6479 265.621C89.7926 261.487 89.9993 255.482 90.2577 248.124C90.8158 233.324 91.6012 212.922 92.4591 190.401C92.4591 190.184 92.4591 189.978 92.4591 189.792V189.864C87.0331 168.16 82.1238 148.461 78.5582 134.209L74.4241 117.352C73.9487 115.378 73.5869 113.838 73.3285 112.763C73.2045 112.257 73.1218 111.864 73.0495 111.564C73.0092 111.43 72.9849 111.291 72.9771 111.151C73.0308 111.281 73.0723 111.416 73.1012 111.554C73.1838 111.843 73.2872 112.236 73.4319 112.732C73.7109 113.766 74.114 115.336 74.6308 117.3C75.6643 121.29 77.1216 127.036 78.9406 134.116C82.5372 148.358 87.4982 168.005 92.9965 189.74V189.812C92.9965 189.998 92.9965 190.215 92.9965 190.422C92.0767 212.942 91.2395 233.334 90.6297 248.134C90.3093 255.503 90.0406 261.466 89.8546 265.621C89.7512 267.688 89.6686 269.259 89.6169 270.375C89.6169 270.903 89.5549 271.316 89.5445 271.616C89.5461 271.758 89.5322 271.9 89.5032 272.039Z" fill="#455A64"/>
<path d="M81.5967 187.973C79.8559 188.545 78.0626 188.943 76.2431 189.161C74.0107 189.543 72.109 189.812 71.2512 189.854V189.647C71.5302 189.73 71.6749 189.781 71.6749 189.823C71.6749 189.864 71.4992 189.823 71.2098 189.823H70.5897L71.2098 189.636C72.016 189.399 73.9177 189.006 76.1501 188.603C77.9405 188.215 79.7649 188.003 81.5967 187.973Z" fill="#455A64"/>
<path d="M81.173 190.939C79.5609 191.013 77.9454 190.94 76.3465 190.722C74.732 190.689 73.1238 190.512 71.5406 190.195C74.7705 189.931 78.0219 190.182 81.173 190.939Z" fill="#455A64"/>
<path opacity="0.2" d="M30.6957 112.794C31.2385 113.491 31.9223 114.066 32.7023 114.481C33.4823 114.896 34.3411 115.141 35.2225 115.202C37.0686 115.421 38.9359 115.386 40.7725 115.099C52.6064 113.786 65.143 112.577 76.7288 109.755C61.7324 110.593 45.8885 110.314 30.892 111.151L30.737 112.432" fill="black"/>
<g opacity="0.2">
<path d="M46.1469 133.93L54.6011 166.734L54.012 135.314L46.1469 133.93Z" fill="black"/>
</g>
</svg>
