<svg width="46" height="39" viewBox="0 0 46 39" fill="none" xmlns="http://www.w3.org/2000/svg">
<path d="M45.2679 26.4643C45.2679 33.3876 39.6555 39 32.7322 39L13.9286 39C12.0055 39 10.4465 37.441 10.4465 35.5179L10.4465 11.8393C10.4465 7.99299 13.5645 4.87497 17.4108 4.87497L41.7858 4.87497C43.7089 4.87497 45.2679 6.43398 45.2679 8.35712L45.2679 26.4643Z" fill="#E8F5E9"/>
<path d="M16.7074 6.96429C14.2202 6.96429 12.1955 9.00753 12.1955 11.5052C12.1955 13.0853 13.0069 14.4805 14.2321 15.2937C12.7523 15.7885 11.4718 16.7133 10.5327 17.9231C10.0134 17.5237 9.43325 17.2025 8.8078 16.9723C9.75624 16.2682 10.376 15.1371 10.376 13.8659C10.376 11.7475 8.66276 10.0134 6.55724 10.0134C4.45171 10.0134 2.73844 11.7475 2.73844 13.8659C2.73844 15.1379 3.35875 16.2695 4.30799 16.9736C1.79487 17.901 3.05333e-05 20.3289 3.05333e-05 23.1864V25.1936C0.000287757 25.3466 0.0614951 25.4932 0.170021 25.601C0.278546 25.709 0.425395 25.7692 0.578413 25.7687H9.38473C9.40608 25.771 9.42743 25.7723 9.44877 25.772H23.9664C23.9878 25.7723 24.0094 25.771 24.0305 25.7687H32.8374C33.154 25.7674 33.4104 25.5105 33.4112 25.1936V23.1864C33.4112 20.3289 31.6195 17.901 29.1076 16.9733C30.0569 16.2695 30.6772 15.1376 30.6772 13.8656C30.6772 11.7473 28.9639 10.0131 26.8584 10.0131C24.7529 10.0131 23.0396 11.7473 23.0396 13.8656C23.0396 15.1369 23.6597 16.2681 24.6081 16.9721C23.9814 17.2028 23.4009 17.525 22.8809 17.9254C21.9422 16.7148 20.6636 15.7888 19.1838 15.2937C20.4087 14.4805 21.2204 13.0853 21.2204 11.5052C21.2204 9.00753 19.1946 6.96429 16.7075 6.96429H16.7074ZM16.7074 8.11643C18.5675 8.11643 20.0671 9.62607 20.0671 11.5052C20.0671 13.3697 18.5909 14.8647 16.7513 14.8887C16.7367 14.8887 16.7223 14.8866 16.7074 14.8866C16.6924 14.8866 16.6783 14.8887 16.6634 14.8887C14.8238 14.865 13.3486 13.3698 13.3486 11.5052C13.3486 9.6258 14.8469 8.11643 16.7071 8.11643H16.7074ZM6.5573 11.1655C8.03323 11.1655 9.22395 12.3634 9.22395 13.8658C9.22395 15.3582 8.04864 16.551 6.5866 16.5672C6.57683 16.5672 6.56731 16.5661 6.55728 16.5661C6.54751 16.5661 6.53799 16.5672 6.52797 16.5672C5.06593 16.551 3.89061 15.3579 3.89061 13.8658C3.89061 12.3634 5.08133 11.1655 6.55726 11.1655H6.5573ZM26.8581 11.1655C28.334 11.1655 29.5247 12.3634 29.5247 13.8658C29.5247 15.3582 28.3494 16.551 26.8874 16.5672C26.8776 16.5672 26.8681 16.5661 26.858 16.5661C26.8483 16.5661 26.8387 16.5672 26.8287 16.5672C25.3667 16.551 24.1914 15.3579 24.1914 13.8658C24.1914 12.3634 25.3821 11.1655 26.858 11.1655H26.8581ZM16.6632 16.0407C16.6779 16.041 16.6923 16.0428 16.7072 16.0428C16.7219 16.0428 16.7363 16.0407 16.7512 16.0407C20.4404 16.0644 23.3928 19.0422 23.3928 22.7699L23.3925 24.6195H10.0224V22.7699C10.0224 19.0419 12.974 16.0644 16.6627 16.0407H16.6632ZM6.51319 17.7206C6.52785 17.7209 6.54225 17.7227 6.55717 17.7227C6.57209 17.7227 6.58623 17.7206 6.60115 17.7206C7.84895 17.7307 8.98773 18.1609 9.8945 18.8807C9.24564 20.0288 8.87041 21.354 8.87041 22.7702V24.6154H1.15171V23.1863C1.15171 20.1568 3.53368 17.7443 6.51306 17.7204L6.51319 17.7206ZM26.8139 17.7206C26.8289 17.7209 26.843 17.7227 26.8579 17.7227C26.8728 17.7227 26.887 17.7206 26.9019 17.7206C29.8813 17.7443 32.2633 20.1571 32.2633 23.1866V24.6154H24.5406L24.5403 22.7702C24.5403 21.3548 24.1662 20.0306 23.5186 18.8828C24.4256 18.1619 25.5652 17.7306 26.814 17.7206H26.8139Z" fill="#103E13"/>
</svg>
